<mxfile host="app.diagrams.net" agent="Mozilla/5.0 (Macintosh; Intel Mac OS X 10_15_7) AppleWebKit/605.1.15 (KHTML, like Gecko) Version/18.3 Safari/605.1.15" version="26.0.16">
  <diagram name="PÃ¡gina-1" id="s1n0lWvy48Rf1SiYjT9b">
    <mxGraphModel grid="1" page="1" gridSize="10" guides="1" tooltips="1" connect="1" arrows="1" fold="1" pageScale="1" pageWidth="827" pageHeight="1169" math="0" shadow="0">
      <root>
        <mxCell id="0" />
        <mxCell id="1" parent="0" />
        <mxCell id="Hx5SDxIe2vybmNxk9Qnh-4" style="edgeStyle=orthogonalEdgeStyle;rounded=0;orthogonalLoop=1;jettySize=auto;html=1;exitX=1;exitY=0.5;exitDx=0;exitDy=0;entryX=0.5;entryY=0;entryDx=0;entryDy=0;" edge="1" parent="1" source="irpH-8KWTIknXqjLATjh-1" target="Hx5SDxIe2vybmNxk9Qnh-2">
          <mxGeometry relative="1" as="geometry" />
        </mxCell>
        <mxCell id="Hx5SDxIe2vybmNxk9Qnh-8" style="edgeStyle=orthogonalEdgeStyle;rounded=0;orthogonalLoop=1;jettySize=auto;html=1;exitX=0;exitY=0.5;exitDx=0;exitDy=0;entryX=0.5;entryY=0;entryDx=0;entryDy=0;" edge="1" parent="1" source="irpH-8KWTIknXqjLATjh-1" target="Hx5SDxIe2vybmNxk9Qnh-1">
          <mxGeometry relative="1" as="geometry" />
        </mxCell>
        <mxCell id="irpH-8KWTIknXqjLATjh-1" value="HTML" style="ellipse;whiteSpace=wrap;html=1;aspect=fixed;fillColor=#dae8fc;strokeColor=#6c8ebf;" vertex="1" parent="1">
          <mxGeometry x="1105" y="-110" width="210" height="210" as="geometry" />
        </mxCell>
        <mxCell id="Hx5SDxIe2vybmNxk9Qnh-14" style="edgeStyle=orthogonalEdgeStyle;rounded=0;orthogonalLoop=1;jettySize=auto;html=1;exitX=0.5;exitY=1;exitDx=0;exitDy=0;entryX=0.5;entryY=0;entryDx=0;entryDy=0;" edge="1" parent="1" source="Hx5SDxIe2vybmNxk9Qnh-1" target="Hx5SDxIe2vybmNxk9Qnh-9">
          <mxGeometry relative="1" as="geometry" />
        </mxCell>
        <mxCell id="Hx5SDxIe2vybmNxk9Qnh-15" style="edgeStyle=orthogonalEdgeStyle;rounded=0;orthogonalLoop=1;jettySize=auto;html=1;exitX=0.5;exitY=0;exitDx=0;exitDy=0;entryX=0.5;entryY=0;entryDx=0;entryDy=0;fillColor=#ffe6cc;strokeColor=#d79b00;" edge="1" parent="1" source="Hx5SDxIe2vybmNxk9Qnh-11" target="Hx5SDxIe2vybmNxk9Qnh-10">
          <mxGeometry relative="1" as="geometry" />
        </mxCell>
        <mxCell id="Hx5SDxIe2vybmNxk9Qnh-16" style="edgeStyle=orthogonalEdgeStyle;rounded=0;orthogonalLoop=1;jettySize=auto;html=1;exitX=0.5;exitY=1;exitDx=0;exitDy=0;entryX=0.5;entryY=0;entryDx=0;entryDy=0;" edge="1" parent="1" source="Hx5SDxIe2vybmNxk9Qnh-1" target="Hx5SDxIe2vybmNxk9Qnh-12">
          <mxGeometry relative="1" as="geometry" />
        </mxCell>
        <mxCell id="Hx5SDxIe2vybmNxk9Qnh-17" style="edgeStyle=orthogonalEdgeStyle;rounded=0;orthogonalLoop=1;jettySize=auto;html=1;exitX=0.5;exitY=1;exitDx=0;exitDy=0;entryX=0.5;entryY=0;entryDx=0;entryDy=0;" edge="1" parent="1" source="Hx5SDxIe2vybmNxk9Qnh-1" target="Hx5SDxIe2vybmNxk9Qnh-13">
          <mxGeometry relative="1" as="geometry" />
        </mxCell>
        <mxCell id="Hx5SDxIe2vybmNxk9Qnh-1" value="head" style="ellipse;whiteSpace=wrap;html=1;aspect=fixed;fillColor=#d5e8d4;strokeColor=#82b366;" vertex="1" parent="1">
          <mxGeometry x="40" y="120" width="80" height="80" as="geometry" />
        </mxCell>
        <mxCell id="Hx5SDxIe2vybmNxk9Qnh-22" style="edgeStyle=orthogonalEdgeStyle;rounded=0;orthogonalLoop=1;jettySize=auto;html=1;exitX=0.5;exitY=1;exitDx=0;exitDy=0;entryX=0.5;entryY=0;entryDx=0;entryDy=0;" edge="1" parent="1" source="Hx5SDxIe2vybmNxk9Qnh-2" target="Hx5SDxIe2vybmNxk9Qnh-19">
          <mxGeometry relative="1" as="geometry" />
        </mxCell>
        <mxCell id="Hx5SDxIe2vybmNxk9Qnh-23" style="edgeStyle=orthogonalEdgeStyle;rounded=0;orthogonalLoop=1;jettySize=auto;html=1;exitX=0.5;exitY=1;exitDx=0;exitDy=0;entryX=0.5;entryY=0;entryDx=0;entryDy=0;" edge="1" parent="1" source="Hx5SDxIe2vybmNxk9Qnh-2" target="Hx5SDxIe2vybmNxk9Qnh-18">
          <mxGeometry relative="1" as="geometry" />
        </mxCell>
        <mxCell id="Hx5SDxIe2vybmNxk9Qnh-24" style="edgeStyle=orthogonalEdgeStyle;rounded=0;orthogonalLoop=1;jettySize=auto;html=1;exitX=0.5;exitY=1;exitDx=0;exitDy=0;entryX=0.5;entryY=0;entryDx=0;entryDy=0;" edge="1" parent="1" source="Hx5SDxIe2vybmNxk9Qnh-2" target="Hx5SDxIe2vybmNxk9Qnh-20">
          <mxGeometry relative="1" as="geometry" />
        </mxCell>
        <mxCell id="Hx5SDxIe2vybmNxk9Qnh-25" style="edgeStyle=orthogonalEdgeStyle;rounded=0;orthogonalLoop=1;jettySize=auto;html=1;exitX=0.5;exitY=1;exitDx=0;exitDy=0;entryX=0.5;entryY=0;entryDx=0;entryDy=0;" edge="1" parent="1" source="Hx5SDxIe2vybmNxk9Qnh-2" target="Hx5SDxIe2vybmNxk9Qnh-21">
          <mxGeometry relative="1" as="geometry" />
        </mxCell>
        <mxCell id="Hx5SDxIe2vybmNxk9Qnh-2" value="body" style="ellipse;whiteSpace=wrap;html=1;aspect=fixed;fillColor=#d5e8d4;strokeColor=#82b366;" vertex="1" parent="1">
          <mxGeometry x="2250" y="100" width="80" height="80" as="geometry" />
        </mxCell>
        <mxCell id="Hx5SDxIe2vybmNxk9Qnh-9" value="meta" style="ellipse;whiteSpace=wrap;html=1;aspect=fixed;fillColor=#ffe6cc;strokeColor=#d79b00;" vertex="1" parent="1">
          <mxGeometry x="-150" y="240" width="80" height="80" as="geometry" />
        </mxCell>
        <mxCell id="Hx5SDxIe2vybmNxk9Qnh-10" value="meta" style="ellipse;whiteSpace=wrap;html=1;aspect=fixed;fillColor=#ffe6cc;strokeColor=#d79b00;" vertex="1" parent="1">
          <mxGeometry x="-60" y="240" width="80" height="80" as="geometry" />
        </mxCell>
        <mxCell id="Hx5SDxIe2vybmNxk9Qnh-11" value="tittle" style="ellipse;whiteSpace=wrap;html=1;aspect=fixed;fillColor=#ffe6cc;strokeColor=#d79b00;" vertex="1" parent="1">
          <mxGeometry x="40" y="240" width="80" height="80" as="geometry" />
        </mxCell>
        <mxCell id="Hx5SDxIe2vybmNxk9Qnh-12" value="link" style="ellipse;whiteSpace=wrap;html=1;aspect=fixed;fillColor=#ffe6cc;strokeColor=#d79b00;" vertex="1" parent="1">
          <mxGeometry x="140" y="240" width="80" height="80" as="geometry" />
        </mxCell>
        <mxCell id="Hx5SDxIe2vybmNxk9Qnh-13" value="style" style="ellipse;whiteSpace=wrap;html=1;aspect=fixed;fillColor=#ffe6cc;strokeColor=#d79b00;" vertex="1" parent="1">
          <mxGeometry x="230" y="240" width="80" height="80" as="geometry" />
        </mxCell>
        <mxCell id="Hx5SDxIe2vybmNxk9Qnh-40" style="edgeStyle=orthogonalEdgeStyle;rounded=0;orthogonalLoop=1;jettySize=auto;html=1;exitX=0.5;exitY=1;exitDx=0;exitDy=0;entryX=0.5;entryY=0;entryDx=0;entryDy=0;" edge="1" parent="1" source="Hx5SDxIe2vybmNxk9Qnh-18" target="Hx5SDxIe2vybmNxk9Qnh-35">
          <mxGeometry relative="1" as="geometry" />
        </mxCell>
        <mxCell id="Hx5SDxIe2vybmNxk9Qnh-41" style="edgeStyle=orthogonalEdgeStyle;rounded=0;orthogonalLoop=1;jettySize=auto;html=1;exitX=0.5;exitY=1;exitDx=0;exitDy=0;entryX=0.5;entryY=0;entryDx=0;entryDy=0;" edge="1" parent="1" source="Hx5SDxIe2vybmNxk9Qnh-18" target="Hx5SDxIe2vybmNxk9Qnh-31">
          <mxGeometry relative="1" as="geometry" />
        </mxCell>
        <mxCell id="Hx5SDxIe2vybmNxk9Qnh-42" style="edgeStyle=orthogonalEdgeStyle;rounded=0;orthogonalLoop=1;jettySize=auto;html=1;exitX=0.5;exitY=1;exitDx=0;exitDy=0;entryX=0.5;entryY=0;entryDx=0;entryDy=0;" edge="1" parent="1" source="Hx5SDxIe2vybmNxk9Qnh-18" target="Hx5SDxIe2vybmNxk9Qnh-36">
          <mxGeometry relative="1" as="geometry" />
        </mxCell>
        <mxCell id="Hx5SDxIe2vybmNxk9Qnh-43" style="edgeStyle=orthogonalEdgeStyle;rounded=0;orthogonalLoop=1;jettySize=auto;html=1;exitX=0.5;exitY=1;exitDx=0;exitDy=0;entryX=0.5;entryY=0;entryDx=0;entryDy=0;" edge="1" parent="1" source="Hx5SDxIe2vybmNxk9Qnh-18" target="Hx5SDxIe2vybmNxk9Qnh-37">
          <mxGeometry relative="1" as="geometry" />
        </mxCell>
        <mxCell id="Hx5SDxIe2vybmNxk9Qnh-18" value="nav" style="ellipse;whiteSpace=wrap;html=1;aspect=fixed;fillColor=#ffe6cc;strokeColor=#d79b00;" vertex="1" parent="1">
          <mxGeometry x="770" y="240" width="80" height="80" as="geometry" />
        </mxCell>
        <mxCell id="Hx5SDxIe2vybmNxk9Qnh-29" style="edgeStyle=orthogonalEdgeStyle;rounded=0;orthogonalLoop=1;jettySize=auto;html=1;exitX=0.5;exitY=1;exitDx=0;exitDy=0;entryX=0.5;entryY=0;entryDx=0;entryDy=0;" edge="1" parent="1" source="Hx5SDxIe2vybmNxk9Qnh-19" target="Hx5SDxIe2vybmNxk9Qnh-26">
          <mxGeometry relative="1" as="geometry" />
        </mxCell>
        <mxCell id="Hx5SDxIe2vybmNxk9Qnh-30" style="edgeStyle=orthogonalEdgeStyle;rounded=0;orthogonalLoop=1;jettySize=auto;html=1;exitX=0.5;exitY=1;exitDx=0;exitDy=0;entryX=0.5;entryY=0;entryDx=0;entryDy=0;" edge="1" parent="1" source="Hx5SDxIe2vybmNxk9Qnh-19" target="Hx5SDxIe2vybmNxk9Qnh-27">
          <mxGeometry relative="1" as="geometry" />
        </mxCell>
        <mxCell id="Hx5SDxIe2vybmNxk9Qnh-19" value="header" style="ellipse;whiteSpace=wrap;html=1;aspect=fixed;fillColor=#ffe6cc;strokeColor=#d79b00;" vertex="1" parent="1">
          <mxGeometry x="440" y="240" width="80" height="80" as="geometry" />
        </mxCell>
        <mxCell id="Hx5SDxIe2vybmNxk9Qnh-48" style="edgeStyle=orthogonalEdgeStyle;rounded=0;orthogonalLoop=1;jettySize=auto;html=1;exitX=0.5;exitY=1;exitDx=0;exitDy=0;entryX=0.5;entryY=0;entryDx=0;entryDy=0;" edge="1" parent="1" source="Hx5SDxIe2vybmNxk9Qnh-20" target="Hx5SDxIe2vybmNxk9Qnh-47">
          <mxGeometry relative="1" as="geometry" />
        </mxCell>
        <mxCell id="Hx5SDxIe2vybmNxk9Qnh-49" style="edgeStyle=orthogonalEdgeStyle;rounded=0;orthogonalLoop=1;jettySize=auto;html=1;exitX=0.5;exitY=0;exitDx=0;exitDy=0;entryX=0.5;entryY=0;entryDx=0;entryDy=0;fillColor=#fff2cc;strokeColor=#d6b656;" edge="1" parent="1" source="Hx5SDxIe2vybmNxk9Qnh-45" target="Hx5SDxIe2vybmNxk9Qnh-46">
          <mxGeometry relative="1" as="geometry" />
        </mxCell>
        <mxCell id="Hx5SDxIe2vybmNxk9Qnh-50" style="edgeStyle=orthogonalEdgeStyle;rounded=0;orthogonalLoop=1;jettySize=auto;html=1;exitX=0.5;exitY=1;exitDx=0;exitDy=0;" edge="1" parent="1" source="Hx5SDxIe2vybmNxk9Qnh-20" target="Hx5SDxIe2vybmNxk9Qnh-44">
          <mxGeometry relative="1" as="geometry" />
        </mxCell>
        <mxCell id="Hx5SDxIe2vybmNxk9Qnh-20" value="main" style="ellipse;whiteSpace=wrap;html=1;aspect=fixed;fillColor=#ffe6cc;strokeColor=#d79b00;" vertex="1" parent="1">
          <mxGeometry x="2250" y="240" width="80" height="80" as="geometry" />
        </mxCell>
        <mxCell id="Hx5SDxIe2vybmNxk9Qnh-207" style="edgeStyle=orthogonalEdgeStyle;rounded=0;orthogonalLoop=1;jettySize=auto;html=1;exitX=0.5;exitY=1;exitDx=0;exitDy=0;entryX=0.5;entryY=0;entryDx=0;entryDy=0;" edge="1" parent="1" source="Hx5SDxIe2vybmNxk9Qnh-21" target="Hx5SDxIe2vybmNxk9Qnh-206">
          <mxGeometry relative="1" as="geometry" />
        </mxCell>
        <mxCell id="Hx5SDxIe2vybmNxk9Qnh-21" value="footer" style="ellipse;whiteSpace=wrap;html=1;aspect=fixed;fillColor=#ffe6cc;strokeColor=#d79b00;" vertex="1" parent="1">
          <mxGeometry x="4170" y="240" width="80" height="80" as="geometry" />
        </mxCell>
        <mxCell id="Hx5SDxIe2vybmNxk9Qnh-26" value="h1" style="ellipse;whiteSpace=wrap;html=1;aspect=fixed;fillColor=#fff2cc;strokeColor=#d6b656;" vertex="1" parent="1">
          <mxGeometry x="390" y="360" width="80" height="80" as="geometry" />
        </mxCell>
        <mxCell id="Hx5SDxIe2vybmNxk9Qnh-27" value="p" style="ellipse;whiteSpace=wrap;html=1;aspect=fixed;fillColor=#fff2cc;strokeColor=#d6b656;" vertex="1" parent="1">
          <mxGeometry x="490" y="360" width="80" height="80" as="geometry" />
        </mxCell>
        <mxCell id="Hx5SDxIe2vybmNxk9Qnh-31" value="a" style="ellipse;whiteSpace=wrap;html=1;aspect=fixed;fillColor=#fff2cc;strokeColor=#d6b656;" vertex="1" parent="1">
          <mxGeometry x="630" y="360" width="80" height="80" as="geometry" />
        </mxCell>
        <mxCell id="Hx5SDxIe2vybmNxk9Qnh-35" value="a" style="ellipse;whiteSpace=wrap;html=1;aspect=fixed;fillColor=#fff2cc;strokeColor=#d6b656;" vertex="1" parent="1">
          <mxGeometry x="720" y="360" width="80" height="80" as="geometry" />
        </mxCell>
        <mxCell id="Hx5SDxIe2vybmNxk9Qnh-36" value="a" style="ellipse;whiteSpace=wrap;html=1;aspect=fixed;fillColor=#fff2cc;strokeColor=#d6b656;" vertex="1" parent="1">
          <mxGeometry x="810" y="360" width="80" height="80" as="geometry" />
        </mxCell>
        <mxCell id="Hx5SDxIe2vybmNxk9Qnh-37" value="a" style="ellipse;whiteSpace=wrap;html=1;aspect=fixed;fillColor=#fff2cc;strokeColor=#d6b656;" vertex="1" parent="1">
          <mxGeometry x="900" y="360" width="80" height="80" as="geometry" />
        </mxCell>
        <mxCell id="Hx5SDxIe2vybmNxk9Qnh-133" style="edgeStyle=orthogonalEdgeStyle;rounded=0;orthogonalLoop=1;jettySize=auto;html=1;exitX=0.5;exitY=1;exitDx=0;exitDy=0;entryX=0.5;entryY=0;entryDx=0;entryDy=0;" edge="1" parent="1" source="Hx5SDxIe2vybmNxk9Qnh-44" target="Hx5SDxIe2vybmNxk9Qnh-131">
          <mxGeometry relative="1" as="geometry" />
        </mxCell>
        <mxCell id="Hx5SDxIe2vybmNxk9Qnh-134" style="edgeStyle=orthogonalEdgeStyle;rounded=0;orthogonalLoop=1;jettySize=auto;html=1;exitX=0.5;exitY=1;exitDx=0;exitDy=0;entryX=0.5;entryY=0;entryDx=0;entryDy=0;" edge="1" parent="1" source="Hx5SDxIe2vybmNxk9Qnh-44" target="Hx5SDxIe2vybmNxk9Qnh-132">
          <mxGeometry relative="1" as="geometry" />
        </mxCell>
        <mxCell id="Hx5SDxIe2vybmNxk9Qnh-44" value="section" style="ellipse;whiteSpace=wrap;html=1;aspect=fixed;fillColor=#fff2cc;strokeColor=#d6b656;" vertex="1" parent="1">
          <mxGeometry x="3140" y="360" width="80" height="80" as="geometry" />
        </mxCell>
        <mxCell id="Hx5SDxIe2vybmNxk9Qnh-82" style="edgeStyle=orthogonalEdgeStyle;rounded=0;orthogonalLoop=1;jettySize=auto;html=1;exitX=0.5;exitY=1;exitDx=0;exitDy=0;entryX=0.5;entryY=0;entryDx=0;entryDy=0;" edge="1" parent="1" source="Hx5SDxIe2vybmNxk9Qnh-45" target="Hx5SDxIe2vybmNxk9Qnh-80">
          <mxGeometry relative="1" as="geometry" />
        </mxCell>
        <mxCell id="Hx5SDxIe2vybmNxk9Qnh-83" style="edgeStyle=orthogonalEdgeStyle;rounded=0;orthogonalLoop=1;jettySize=auto;html=1;exitX=0.5;exitY=1;exitDx=0;exitDy=0;entryX=0.5;entryY=0;entryDx=0;entryDy=0;" edge="1" parent="1" source="Hx5SDxIe2vybmNxk9Qnh-45" target="Hx5SDxIe2vybmNxk9Qnh-81">
          <mxGeometry relative="1" as="geometry" />
        </mxCell>
        <mxCell id="Hx5SDxIe2vybmNxk9Qnh-45" value="section" style="ellipse;whiteSpace=wrap;html=1;aspect=fixed;fillColor=#fff2cc;strokeColor=#d6b656;" vertex="1" parent="1">
          <mxGeometry x="1810" y="360" width="80" height="80" as="geometry" />
        </mxCell>
        <mxCell id="Hx5SDxIe2vybmNxk9Qnh-59" style="edgeStyle=orthogonalEdgeStyle;rounded=0;orthogonalLoop=1;jettySize=auto;html=1;exitX=0.5;exitY=1;exitDx=0;exitDy=0;entryX=0.5;entryY=0;entryDx=0;entryDy=0;" edge="1" parent="1" source="Hx5SDxIe2vybmNxk9Qnh-46" target="Hx5SDxIe2vybmNxk9Qnh-57">
          <mxGeometry relative="1" as="geometry" />
        </mxCell>
        <mxCell id="Hx5SDxIe2vybmNxk9Qnh-60" style="edgeStyle=orthogonalEdgeStyle;rounded=0;orthogonalLoop=1;jettySize=auto;html=1;exitX=0.5;exitY=1;exitDx=0;exitDy=0;" edge="1" parent="1" source="Hx5SDxIe2vybmNxk9Qnh-46" target="Hx5SDxIe2vybmNxk9Qnh-58">
          <mxGeometry relative="1" as="geometry" />
        </mxCell>
        <mxCell id="Hx5SDxIe2vybmNxk9Qnh-46" value="section" style="ellipse;whiteSpace=wrap;html=1;aspect=fixed;fillColor=#fff2cc;strokeColor=#d6b656;" vertex="1" parent="1">
          <mxGeometry x="1210" y="360" width="80" height="80" as="geometry" />
        </mxCell>
        <mxCell id="Hx5SDxIe2vybmNxk9Qnh-55" style="edgeStyle=orthogonalEdgeStyle;rounded=0;orthogonalLoop=1;jettySize=auto;html=1;exitX=0.5;exitY=1;exitDx=0;exitDy=0;entryX=0.5;entryY=0;entryDx=0;entryDy=0;" edge="1" parent="1" source="Hx5SDxIe2vybmNxk9Qnh-47" target="Hx5SDxIe2vybmNxk9Qnh-53">
          <mxGeometry relative="1" as="geometry" />
        </mxCell>
        <mxCell id="Hx5SDxIe2vybmNxk9Qnh-56" style="edgeStyle=orthogonalEdgeStyle;rounded=0;orthogonalLoop=1;jettySize=auto;html=1;exitX=0.5;exitY=1;exitDx=0;exitDy=0;entryX=0.5;entryY=0;entryDx=0;entryDy=0;" edge="1" parent="1" source="Hx5SDxIe2vybmNxk9Qnh-47" target="Hx5SDxIe2vybmNxk9Qnh-54">
          <mxGeometry relative="1" as="geometry" />
        </mxCell>
        <mxCell id="Hx5SDxIe2vybmNxk9Qnh-47" value="section" style="ellipse;whiteSpace=wrap;html=1;aspect=fixed;fillColor=#fff2cc;strokeColor=#d6b656;" vertex="1" parent="1">
          <mxGeometry x="1030" y="360" width="80" height="80" as="geometry" />
        </mxCell>
        <mxCell id="Hx5SDxIe2vybmNxk9Qnh-53" value="h2" style="ellipse;whiteSpace=wrap;html=1;aspect=fixed;fillColor=#f8cecc;strokeColor=#b85450;" vertex="1" parent="1">
          <mxGeometry x="980" y="490" width="80" height="80" as="geometry" />
        </mxCell>
        <mxCell id="Hx5SDxIe2vybmNxk9Qnh-54" value="p" style="ellipse;whiteSpace=wrap;html=1;aspect=fixed;fillColor=#f8cecc;strokeColor=#b85450;" vertex="1" parent="1">
          <mxGeometry x="1070" y="490" width="80" height="80" as="geometry" />
        </mxCell>
        <mxCell id="Hx5SDxIe2vybmNxk9Qnh-57" value="h2" style="ellipse;whiteSpace=wrap;html=1;aspect=fixed;fillColor=#f8cecc;strokeColor=#b85450;" vertex="1" parent="1">
          <mxGeometry x="1170" y="490" width="80" height="80" as="geometry" />
        </mxCell>
        <mxCell id="Hx5SDxIe2vybmNxk9Qnh-74" style="edgeStyle=orthogonalEdgeStyle;rounded=0;orthogonalLoop=1;jettySize=auto;html=1;exitX=0.5;exitY=1;exitDx=0;exitDy=0;entryX=0.5;entryY=0;entryDx=0;entryDy=0;" edge="1" parent="1" source="Hx5SDxIe2vybmNxk9Qnh-58" target="Hx5SDxIe2vybmNxk9Qnh-72">
          <mxGeometry relative="1" as="geometry" />
        </mxCell>
        <mxCell id="Hx5SDxIe2vybmNxk9Qnh-75" style="edgeStyle=orthogonalEdgeStyle;rounded=0;orthogonalLoop=1;jettySize=auto;html=1;exitX=0.5;exitY=1;exitDx=0;exitDy=0;entryX=0.5;entryY=0;entryDx=0;entryDy=0;" edge="1" parent="1" source="Hx5SDxIe2vybmNxk9Qnh-58" target="Hx5SDxIe2vybmNxk9Qnh-70">
          <mxGeometry relative="1" as="geometry" />
        </mxCell>
        <mxCell id="Hx5SDxIe2vybmNxk9Qnh-76" style="edgeStyle=orthogonalEdgeStyle;rounded=0;orthogonalLoop=1;jettySize=auto;html=1;exitX=0.5;exitY=1;exitDx=0;exitDy=0;entryX=0.5;entryY=0;entryDx=0;entryDy=0;" edge="1" parent="1" source="Hx5SDxIe2vybmNxk9Qnh-58" target="Hx5SDxIe2vybmNxk9Qnh-71">
          <mxGeometry relative="1" as="geometry" />
        </mxCell>
        <mxCell id="Hx5SDxIe2vybmNxk9Qnh-77" style="edgeStyle=orthogonalEdgeStyle;rounded=0;orthogonalLoop=1;jettySize=auto;html=1;exitX=0.5;exitY=1;exitDx=0;exitDy=0;" edge="1" parent="1" source="Hx5SDxIe2vybmNxk9Qnh-58" target="Hx5SDxIe2vybmNxk9Qnh-69">
          <mxGeometry relative="1" as="geometry" />
        </mxCell>
        <mxCell id="Hx5SDxIe2vybmNxk9Qnh-78" style="edgeStyle=orthogonalEdgeStyle;rounded=0;orthogonalLoop=1;jettySize=auto;html=1;exitX=0.5;exitY=1;exitDx=0;exitDy=0;entryX=0.5;entryY=0;entryDx=0;entryDy=0;" edge="1" parent="1" source="Hx5SDxIe2vybmNxk9Qnh-58" target="Hx5SDxIe2vybmNxk9Qnh-61">
          <mxGeometry relative="1" as="geometry" />
        </mxCell>
        <mxCell id="Hx5SDxIe2vybmNxk9Qnh-79" style="edgeStyle=orthogonalEdgeStyle;rounded=0;orthogonalLoop=1;jettySize=auto;html=1;exitX=0.5;exitY=1;exitDx=0;exitDy=0;entryX=0.5;entryY=0;entryDx=0;entryDy=0;" edge="1" parent="1" source="Hx5SDxIe2vybmNxk9Qnh-58" target="Hx5SDxIe2vybmNxk9Qnh-68">
          <mxGeometry relative="1" as="geometry" />
        </mxCell>
        <mxCell id="Hx5SDxIe2vybmNxk9Qnh-58" value="div" style="ellipse;whiteSpace=wrap;html=1;aspect=fixed;fillColor=#f8cecc;strokeColor=#b85450;" vertex="1" parent="1">
          <mxGeometry x="1260" y="490" width="80" height="80" as="geometry" />
        </mxCell>
        <mxCell id="Hx5SDxIe2vybmNxk9Qnh-61" value="img" style="ellipse;whiteSpace=wrap;html=1;aspect=fixed;fillColor=#e1d5e7;strokeColor=#9673a6;" vertex="1" parent="1">
          <mxGeometry x="1400" y="620" width="80" height="80" as="geometry" />
        </mxCell>
        <mxCell id="Hx5SDxIe2vybmNxk9Qnh-68" value="img" style="ellipse;whiteSpace=wrap;html=1;aspect=fixed;fillColor=#e1d5e7;strokeColor=#9673a6;" vertex="1" parent="1">
          <mxGeometry x="1490" y="620" width="80" height="80" as="geometry" />
        </mxCell>
        <mxCell id="Hx5SDxIe2vybmNxk9Qnh-69" value="img" style="ellipse;whiteSpace=wrap;html=1;aspect=fixed;fillColor=#e1d5e7;strokeColor=#9673a6;" vertex="1" parent="1">
          <mxGeometry x="1310" y="620" width="80" height="80" as="geometry" />
        </mxCell>
        <mxCell id="Hx5SDxIe2vybmNxk9Qnh-70" value="img" style="ellipse;whiteSpace=wrap;html=1;aspect=fixed;fillColor=#e1d5e7;strokeColor=#9673a6;" vertex="1" parent="1">
          <mxGeometry x="1131" y="620" width="80" height="80" as="geometry" />
        </mxCell>
        <mxCell id="Hx5SDxIe2vybmNxk9Qnh-71" value="img" style="ellipse;whiteSpace=wrap;html=1;aspect=fixed;fillColor=#e1d5e7;strokeColor=#9673a6;" vertex="1" parent="1">
          <mxGeometry x="1220" y="620" width="80" height="80" as="geometry" />
        </mxCell>
        <mxCell id="Hx5SDxIe2vybmNxk9Qnh-72" value="img" style="ellipse;whiteSpace=wrap;html=1;aspect=fixed;fillColor=#e1d5e7;strokeColor=#9673a6;" vertex="1" parent="1">
          <mxGeometry x="1040" y="620" width="80" height="80" as="geometry" />
        </mxCell>
        <mxCell id="Hx5SDxIe2vybmNxk9Qnh-80" value="h2" style="ellipse;whiteSpace=wrap;html=1;aspect=fixed;fillColor=#f8cecc;strokeColor=#b85450;" vertex="1" parent="1">
          <mxGeometry x="1640" y="490" width="80" height="80" as="geometry" />
        </mxCell>
        <mxCell id="Hx5SDxIe2vybmNxk9Qnh-86" style="edgeStyle=orthogonalEdgeStyle;rounded=0;orthogonalLoop=1;jettySize=auto;html=1;exitX=0.5;exitY=1;exitDx=0;exitDy=0;entryX=0.5;entryY=0;entryDx=0;entryDy=0;" edge="1" parent="1" source="Hx5SDxIe2vybmNxk9Qnh-81" target="Hx5SDxIe2vybmNxk9Qnh-84">
          <mxGeometry relative="1" as="geometry" />
        </mxCell>
        <mxCell id="Hx5SDxIe2vybmNxk9Qnh-87" style="edgeStyle=orthogonalEdgeStyle;rounded=0;orthogonalLoop=1;jettySize=auto;html=1;exitX=0.5;exitY=1;exitDx=0;exitDy=0;" edge="1" parent="1" source="Hx5SDxIe2vybmNxk9Qnh-81" target="Hx5SDxIe2vybmNxk9Qnh-85">
          <mxGeometry relative="1" as="geometry" />
        </mxCell>
        <mxCell id="Hx5SDxIe2vybmNxk9Qnh-81" value="table" style="ellipse;whiteSpace=wrap;html=1;aspect=fixed;fillColor=#f8cecc;strokeColor=#b85450;" vertex="1" parent="1">
          <mxGeometry x="1987" y="490" width="80" height="80" as="geometry" />
        </mxCell>
        <mxCell id="Hx5SDxIe2vybmNxk9Qnh-89" style="edgeStyle=orthogonalEdgeStyle;rounded=0;orthogonalLoop=1;jettySize=auto;html=1;exitX=0.5;exitY=1;exitDx=0;exitDy=0;entryX=0.5;entryY=0;entryDx=0;entryDy=0;" edge="1" parent="1" source="Hx5SDxIe2vybmNxk9Qnh-84" target="Hx5SDxIe2vybmNxk9Qnh-88">
          <mxGeometry relative="1" as="geometry" />
        </mxCell>
        <mxCell id="Hx5SDxIe2vybmNxk9Qnh-84" value="thead" style="ellipse;whiteSpace=wrap;html=1;aspect=fixed;fillColor=#e1d5e7;strokeColor=#9673a6;" vertex="1" parent="1">
          <mxGeometry x="1680" y="620" width="80" height="80" as="geometry" />
        </mxCell>
        <mxCell id="Hx5SDxIe2vybmNxk9Qnh-116" style="edgeStyle=orthogonalEdgeStyle;rounded=0;orthogonalLoop=1;jettySize=auto;html=1;exitX=0.5;exitY=1;exitDx=0;exitDy=0;entryX=0.5;entryY=0;entryDx=0;entryDy=0;" edge="1" parent="1" source="Hx5SDxIe2vybmNxk9Qnh-85" target="Hx5SDxIe2vybmNxk9Qnh-104">
          <mxGeometry relative="1" as="geometry" />
        </mxCell>
        <mxCell id="Hx5SDxIe2vybmNxk9Qnh-117" style="edgeStyle=orthogonalEdgeStyle;rounded=0;orthogonalLoop=1;jettySize=auto;html=1;exitX=0.5;exitY=1;exitDx=0;exitDy=0;entryX=0.5;entryY=0;entryDx=0;entryDy=0;" edge="1" parent="1" source="Hx5SDxIe2vybmNxk9Qnh-85" target="Hx5SDxIe2vybmNxk9Qnh-106">
          <mxGeometry relative="1" as="geometry" />
        </mxCell>
        <mxCell id="Hx5SDxIe2vybmNxk9Qnh-120" style="edgeStyle=orthogonalEdgeStyle;rounded=0;orthogonalLoop=1;jettySize=auto;html=1;exitX=0.5;exitY=1;exitDx=0;exitDy=0;" edge="1" parent="1" source="Hx5SDxIe2vybmNxk9Qnh-85" target="Hx5SDxIe2vybmNxk9Qnh-105">
          <mxGeometry relative="1" as="geometry" />
        </mxCell>
        <mxCell id="Hx5SDxIe2vybmNxk9Qnh-85" value="tbody" style="ellipse;whiteSpace=wrap;html=1;aspect=fixed;fillColor=#e1d5e7;strokeColor=#9673a6;" vertex="1" parent="1">
          <mxGeometry x="2301" y="620" width="80" height="80" as="geometry" />
        </mxCell>
        <mxCell id="Hx5SDxIe2vybmNxk9Qnh-101" style="edgeStyle=orthogonalEdgeStyle;rounded=0;orthogonalLoop=1;jettySize=auto;html=1;exitX=0.5;exitY=1;exitDx=0;exitDy=0;entryX=0.5;entryY=0;entryDx=0;entryDy=0;" edge="1" parent="1" source="Hx5SDxIe2vybmNxk9Qnh-88" target="Hx5SDxIe2vybmNxk9Qnh-91">
          <mxGeometry relative="1" as="geometry">
            <Array as="points">
              <mxPoint x="1720" y="840" />
              <mxPoint x="1630" y="840" />
            </Array>
          </mxGeometry>
        </mxCell>
        <mxCell id="Hx5SDxIe2vybmNxk9Qnh-102" style="edgeStyle=orthogonalEdgeStyle;rounded=0;orthogonalLoop=1;jettySize=auto;html=1;exitX=0.5;exitY=1;exitDx=0;exitDy=0;entryX=0.5;entryY=0;entryDx=0;entryDy=0;" edge="1" parent="1" source="Hx5SDxIe2vybmNxk9Qnh-88" target="Hx5SDxIe2vybmNxk9Qnh-92">
          <mxGeometry relative="1" as="geometry" />
        </mxCell>
        <mxCell id="Hx5SDxIe2vybmNxk9Qnh-103" style="edgeStyle=orthogonalEdgeStyle;rounded=0;orthogonalLoop=1;jettySize=auto;html=1;exitX=0.5;exitY=1;exitDx=0;exitDy=0;entryX=0.5;entryY=0;entryDx=0;entryDy=0;" edge="1" parent="1" source="Hx5SDxIe2vybmNxk9Qnh-88" target="Hx5SDxIe2vybmNxk9Qnh-90">
          <mxGeometry relative="1" as="geometry" />
        </mxCell>
        <mxCell id="Hx5SDxIe2vybmNxk9Qnh-88" value="tr" style="ellipse;whiteSpace=wrap;html=1;aspect=fixed;fillColor=#b0e3e6;strokeColor=#0e8088;" vertex="1" parent="1">
          <mxGeometry x="1680" y="740" width="80" height="80" as="geometry" />
        </mxCell>
        <mxCell id="Hx5SDxIe2vybmNxk9Qnh-90" value="th" style="ellipse;whiteSpace=wrap;html=1;aspect=fixed;fillColor=#bac8d3;strokeColor=#23445d;" vertex="1" parent="1">
          <mxGeometry x="1770" y="860" width="80" height="80" as="geometry" />
        </mxCell>
        <mxCell id="Hx5SDxIe2vybmNxk9Qnh-91" value="th" style="ellipse;whiteSpace=wrap;html=1;aspect=fixed;fillColor=#bac8d3;strokeColor=#23445d;" vertex="1" parent="1">
          <mxGeometry x="1590" y="860" width="80" height="80" as="geometry" />
        </mxCell>
        <mxCell id="Hx5SDxIe2vybmNxk9Qnh-92" value="th" style="ellipse;whiteSpace=wrap;html=1;aspect=fixed;fillColor=#bac8d3;strokeColor=#23445d;" vertex="1" parent="1">
          <mxGeometry x="1680" y="860" width="80" height="80" as="geometry" />
        </mxCell>
        <mxCell id="Hx5SDxIe2vybmNxk9Qnh-125" style="edgeStyle=orthogonalEdgeStyle;rounded=0;orthogonalLoop=1;jettySize=auto;html=1;exitX=0.5;exitY=1;exitDx=0;exitDy=0;entryX=0.5;entryY=0;entryDx=0;entryDy=0;" edge="1" parent="1" source="Hx5SDxIe2vybmNxk9Qnh-104" target="Hx5SDxIe2vybmNxk9Qnh-110">
          <mxGeometry relative="1" as="geometry" />
        </mxCell>
        <mxCell id="Hx5SDxIe2vybmNxk9Qnh-126" style="edgeStyle=orthogonalEdgeStyle;rounded=0;orthogonalLoop=1;jettySize=auto;html=1;exitX=0.5;exitY=1;exitDx=0;exitDy=0;entryX=0.5;entryY=0;entryDx=0;entryDy=0;" edge="1" parent="1" source="Hx5SDxIe2vybmNxk9Qnh-104" target="Hx5SDxIe2vybmNxk9Qnh-111">
          <mxGeometry relative="1" as="geometry" />
        </mxCell>
        <mxCell id="Hx5SDxIe2vybmNxk9Qnh-127" style="edgeStyle=orthogonalEdgeStyle;rounded=0;orthogonalLoop=1;jettySize=auto;html=1;exitX=0.5;exitY=1;exitDx=0;exitDy=0;entryX=0.5;entryY=0;entryDx=0;entryDy=0;" edge="1" parent="1" source="Hx5SDxIe2vybmNxk9Qnh-104" target="Hx5SDxIe2vybmNxk9Qnh-112">
          <mxGeometry relative="1" as="geometry" />
        </mxCell>
        <mxCell id="Hx5SDxIe2vybmNxk9Qnh-104" value="tr" style="ellipse;whiteSpace=wrap;html=1;aspect=fixed;fillColor=#b0e3e6;strokeColor=#0e8088;" vertex="1" parent="1">
          <mxGeometry x="2301" y="740" width="80" height="80" as="geometry" />
        </mxCell>
        <mxCell id="Hx5SDxIe2vybmNxk9Qnh-128" style="edgeStyle=orthogonalEdgeStyle;rounded=0;orthogonalLoop=1;jettySize=auto;html=1;exitX=0.5;exitY=1;exitDx=0;exitDy=0;entryX=0.5;entryY=0;entryDx=0;entryDy=0;" edge="1" parent="1" source="Hx5SDxIe2vybmNxk9Qnh-105" target="Hx5SDxIe2vybmNxk9Qnh-113">
          <mxGeometry relative="1" as="geometry" />
        </mxCell>
        <mxCell id="Hx5SDxIe2vybmNxk9Qnh-129" style="edgeStyle=orthogonalEdgeStyle;rounded=0;orthogonalLoop=1;jettySize=auto;html=1;exitX=0.5;exitY=1;exitDx=0;exitDy=0;" edge="1" parent="1" source="Hx5SDxIe2vybmNxk9Qnh-105" target="Hx5SDxIe2vybmNxk9Qnh-114">
          <mxGeometry relative="1" as="geometry" />
        </mxCell>
        <mxCell id="Hx5SDxIe2vybmNxk9Qnh-130" style="edgeStyle=orthogonalEdgeStyle;rounded=0;orthogonalLoop=1;jettySize=auto;html=1;exitX=0.5;exitY=1;exitDx=0;exitDy=0;entryX=0.5;entryY=0;entryDx=0;entryDy=0;" edge="1" parent="1" source="Hx5SDxIe2vybmNxk9Qnh-105" target="Hx5SDxIe2vybmNxk9Qnh-115">
          <mxGeometry relative="1" as="geometry" />
        </mxCell>
        <mxCell id="Hx5SDxIe2vybmNxk9Qnh-105" value="tr" style="ellipse;whiteSpace=wrap;html=1;aspect=fixed;fillColor=#b0e3e6;strokeColor=#0e8088;" vertex="1" parent="1">
          <mxGeometry x="2600" y="740" width="80" height="80" as="geometry" />
        </mxCell>
        <mxCell id="Hx5SDxIe2vybmNxk9Qnh-122" style="edgeStyle=orthogonalEdgeStyle;rounded=0;orthogonalLoop=1;jettySize=auto;html=1;exitX=0.5;exitY=1;exitDx=0;exitDy=0;entryX=0.5;entryY=0;entryDx=0;entryDy=0;" edge="1" parent="1" source="Hx5SDxIe2vybmNxk9Qnh-106" target="Hx5SDxIe2vybmNxk9Qnh-107">
          <mxGeometry relative="1" as="geometry" />
        </mxCell>
        <mxCell id="Hx5SDxIe2vybmNxk9Qnh-123" style="edgeStyle=orthogonalEdgeStyle;rounded=0;orthogonalLoop=1;jettySize=auto;html=1;exitX=0.5;exitY=1;exitDx=0;exitDy=0;entryX=0.5;entryY=0;entryDx=0;entryDy=0;" edge="1" parent="1" source="Hx5SDxIe2vybmNxk9Qnh-106" target="Hx5SDxIe2vybmNxk9Qnh-108">
          <mxGeometry relative="1" as="geometry" />
        </mxCell>
        <mxCell id="Hx5SDxIe2vybmNxk9Qnh-124" style="edgeStyle=orthogonalEdgeStyle;rounded=0;orthogonalLoop=1;jettySize=auto;html=1;exitX=0.5;exitY=1;exitDx=0;exitDy=0;entryX=0.5;entryY=0;entryDx=0;entryDy=0;" edge="1" parent="1" source="Hx5SDxIe2vybmNxk9Qnh-106" target="Hx5SDxIe2vybmNxk9Qnh-109">
          <mxGeometry relative="1" as="geometry" />
        </mxCell>
        <mxCell id="Hx5SDxIe2vybmNxk9Qnh-106" value="tr" style="ellipse;whiteSpace=wrap;html=1;aspect=fixed;fillColor=#b0e3e6;strokeColor=#0e8088;" vertex="1" parent="1">
          <mxGeometry x="2000" y="740" width="80" height="80" as="geometry" />
        </mxCell>
        <mxCell id="Hx5SDxIe2vybmNxk9Qnh-107" value="td" style="ellipse;whiteSpace=wrap;html=1;aspect=fixed;fillColor=#bac8d3;strokeColor=#23445d;" vertex="1" parent="1">
          <mxGeometry x="1901" y="860" width="80" height="80" as="geometry" />
        </mxCell>
        <mxCell id="Hx5SDxIe2vybmNxk9Qnh-108" value="td" style="ellipse;whiteSpace=wrap;html=1;aspect=fixed;fillColor=#bac8d3;strokeColor=#23445d;" vertex="1" parent="1">
          <mxGeometry x="2001" y="860" width="80" height="80" as="geometry" />
        </mxCell>
        <mxCell id="Hx5SDxIe2vybmNxk9Qnh-109" value="td" style="ellipse;whiteSpace=wrap;html=1;aspect=fixed;fillColor=#bac8d3;strokeColor=#23445d;" vertex="1" parent="1">
          <mxGeometry x="2101" y="860" width="80" height="80" as="geometry" />
        </mxCell>
        <mxCell id="Hx5SDxIe2vybmNxk9Qnh-110" value="td" style="ellipse;whiteSpace=wrap;html=1;aspect=fixed;fillColor=#bac8d3;strokeColor=#23445d;" vertex="1" parent="1">
          <mxGeometry x="2202" y="860" width="80" height="80" as="geometry" />
        </mxCell>
        <mxCell id="Hx5SDxIe2vybmNxk9Qnh-111" value="td" style="ellipse;whiteSpace=wrap;html=1;aspect=fixed;fillColor=#bac8d3;strokeColor=#23445d;" vertex="1" parent="1">
          <mxGeometry x="2302" y="860" width="80" height="80" as="geometry" />
        </mxCell>
        <mxCell id="Hx5SDxIe2vybmNxk9Qnh-112" value="td" style="ellipse;whiteSpace=wrap;html=1;aspect=fixed;fillColor=#bac8d3;strokeColor=#23445d;" vertex="1" parent="1">
          <mxGeometry x="2402" y="860" width="80" height="80" as="geometry" />
        </mxCell>
        <mxCell id="Hx5SDxIe2vybmNxk9Qnh-113" value="td" style="ellipse;whiteSpace=wrap;html=1;aspect=fixed;fillColor=#bac8d3;strokeColor=#23445d;" vertex="1" parent="1">
          <mxGeometry x="2501" y="860" width="80" height="80" as="geometry" />
        </mxCell>
        <mxCell id="Hx5SDxIe2vybmNxk9Qnh-114" value="td" style="ellipse;whiteSpace=wrap;html=1;aspect=fixed;fillColor=#bac8d3;strokeColor=#23445d;" vertex="1" parent="1">
          <mxGeometry x="2601" y="860" width="80" height="80" as="geometry" />
        </mxCell>
        <mxCell id="Hx5SDxIe2vybmNxk9Qnh-115" value="td" style="ellipse;whiteSpace=wrap;html=1;aspect=fixed;fillColor=#bac8d3;strokeColor=#23445d;" vertex="1" parent="1">
          <mxGeometry x="2701" y="860" width="80" height="80" as="geometry" />
        </mxCell>
        <mxCell id="Hx5SDxIe2vybmNxk9Qnh-131" value="h2" style="ellipse;whiteSpace=wrap;html=1;aspect=fixed;fillColor=#f8cecc;strokeColor=#b85450;" vertex="1" parent="1">
          <mxGeometry x="2800" y="490" width="80" height="80" as="geometry" />
        </mxCell>
        <mxCell id="Hx5SDxIe2vybmNxk9Qnh-156" style="edgeStyle=orthogonalEdgeStyle;rounded=0;orthogonalLoop=1;jettySize=auto;html=1;exitX=0.5;exitY=1;exitDx=0;exitDy=0;entryX=0.5;entryY=0;entryDx=0;entryDy=0;" edge="1" parent="1" source="Hx5SDxIe2vybmNxk9Qnh-132" target="Hx5SDxIe2vybmNxk9Qnh-142">
          <mxGeometry relative="1" as="geometry" />
        </mxCell>
        <mxCell id="Hx5SDxIe2vybmNxk9Qnh-170" style="edgeStyle=orthogonalEdgeStyle;rounded=0;orthogonalLoop=1;jettySize=auto;html=1;exitX=0.5;exitY=1;exitDx=0;exitDy=0;entryX=0.5;entryY=0;entryDx=0;entryDy=0;" edge="1" parent="1" source="Hx5SDxIe2vybmNxk9Qnh-132" target="Hx5SDxIe2vybmNxk9Qnh-144">
          <mxGeometry relative="1" as="geometry" />
        </mxCell>
        <mxCell id="Hx5SDxIe2vybmNxk9Qnh-177" style="edgeStyle=orthogonalEdgeStyle;rounded=0;orthogonalLoop=1;jettySize=auto;html=1;exitX=0.5;exitY=1;exitDx=0;exitDy=0;" edge="1" parent="1" source="Hx5SDxIe2vybmNxk9Qnh-132" target="Hx5SDxIe2vybmNxk9Qnh-159">
          <mxGeometry relative="1" as="geometry" />
        </mxCell>
        <mxCell id="Hx5SDxIe2vybmNxk9Qnh-179" style="edgeStyle=orthogonalEdgeStyle;rounded=0;orthogonalLoop=1;jettySize=auto;html=1;exitX=0.5;exitY=1;exitDx=0;exitDy=0;" edge="1" parent="1" source="Hx5SDxIe2vybmNxk9Qnh-132" target="Hx5SDxIe2vybmNxk9Qnh-160">
          <mxGeometry relative="1" as="geometry" />
        </mxCell>
        <mxCell id="Hx5SDxIe2vybmNxk9Qnh-180" style="edgeStyle=orthogonalEdgeStyle;rounded=0;orthogonalLoop=1;jettySize=auto;html=1;exitX=0.5;exitY=1;exitDx=0;exitDy=0;entryX=0.5;entryY=0;entryDx=0;entryDy=0;" edge="1" parent="1" source="Hx5SDxIe2vybmNxk9Qnh-132" target="Hx5SDxIe2vybmNxk9Qnh-162">
          <mxGeometry relative="1" as="geometry" />
        </mxCell>
        <mxCell id="Hx5SDxIe2vybmNxk9Qnh-188" style="edgeStyle=orthogonalEdgeStyle;rounded=0;orthogonalLoop=1;jettySize=auto;html=1;exitX=0.5;exitY=1;exitDx=0;exitDy=0;entryX=0.5;entryY=0;entryDx=0;entryDy=0;" edge="1" parent="1" source="Hx5SDxIe2vybmNxk9Qnh-132" target="Hx5SDxIe2vybmNxk9Qnh-163">
          <mxGeometry relative="1" as="geometry" />
        </mxCell>
        <mxCell id="Hx5SDxIe2vybmNxk9Qnh-194" style="edgeStyle=orthogonalEdgeStyle;rounded=0;orthogonalLoop=1;jettySize=auto;html=1;exitX=0.5;exitY=1;exitDx=0;exitDy=0;entryX=0.5;entryY=0;entryDx=0;entryDy=0;" edge="1" parent="1" source="Hx5SDxIe2vybmNxk9Qnh-132" target="Hx5SDxIe2vybmNxk9Qnh-161">
          <mxGeometry relative="1" as="geometry" />
        </mxCell>
        <mxCell id="Hx5SDxIe2vybmNxk9Qnh-195" style="edgeStyle=orthogonalEdgeStyle;rounded=0;orthogonalLoop=1;jettySize=auto;html=1;exitX=0.5;exitY=1;exitDx=0;exitDy=0;entryX=0.5;entryY=0;entryDx=0;entryDy=0;" edge="1" parent="1" source="Hx5SDxIe2vybmNxk9Qnh-132" target="Hx5SDxIe2vybmNxk9Qnh-189">
          <mxGeometry relative="1" as="geometry" />
        </mxCell>
        <mxCell id="Hx5SDxIe2vybmNxk9Qnh-196" style="edgeStyle=orthogonalEdgeStyle;rounded=0;orthogonalLoop=1;jettySize=auto;html=1;exitX=0.5;exitY=1;exitDx=0;exitDy=0;entryX=0.5;entryY=0;entryDx=0;entryDy=0;" edge="1" parent="1" source="Hx5SDxIe2vybmNxk9Qnh-132" target="Hx5SDxIe2vybmNxk9Qnh-193">
          <mxGeometry relative="1" as="geometry" />
        </mxCell>
        <mxCell id="Hx5SDxIe2vybmNxk9Qnh-197" style="edgeStyle=orthogonalEdgeStyle;rounded=0;orthogonalLoop=1;jettySize=auto;html=1;exitX=0.5;exitY=1;exitDx=0;exitDy=0;entryX=0.5;entryY=0;entryDx=0;entryDy=0;" edge="1" parent="1" source="Hx5SDxIe2vybmNxk9Qnh-132" target="Hx5SDxIe2vybmNxk9Qnh-190">
          <mxGeometry relative="1" as="geometry" />
        </mxCell>
        <mxCell id="Hx5SDxIe2vybmNxk9Qnh-198" style="edgeStyle=orthogonalEdgeStyle;rounded=0;orthogonalLoop=1;jettySize=auto;html=1;exitX=0.5;exitY=1;exitDx=0;exitDy=0;entryX=0.5;entryY=0;entryDx=0;entryDy=0;" edge="1" parent="1" source="Hx5SDxIe2vybmNxk9Qnh-132" target="Hx5SDxIe2vybmNxk9Qnh-192">
          <mxGeometry relative="1" as="geometry" />
        </mxCell>
        <mxCell id="Hx5SDxIe2vybmNxk9Qnh-199" style="edgeStyle=orthogonalEdgeStyle;rounded=0;orthogonalLoop=1;jettySize=auto;html=1;exitX=0.5;exitY=1;exitDx=0;exitDy=0;" edge="1" parent="1" source="Hx5SDxIe2vybmNxk9Qnh-132" target="Hx5SDxIe2vybmNxk9Qnh-191">
          <mxGeometry relative="1" as="geometry" />
        </mxCell>
        <mxCell id="Hx5SDxIe2vybmNxk9Qnh-200" style="edgeStyle=orthogonalEdgeStyle;rounded=0;orthogonalLoop=1;jettySize=auto;html=1;exitX=0.5;exitY=1;exitDx=0;exitDy=0;entryX=0.5;entryY=0;entryDx=0;entryDy=0;" edge="1" parent="1" source="Hx5SDxIe2vybmNxk9Qnh-132" target="Hx5SDxIe2vybmNxk9Qnh-169">
          <mxGeometry relative="1" as="geometry" />
        </mxCell>
        <mxCell id="Hx5SDxIe2vybmNxk9Qnh-203" style="edgeStyle=orthogonalEdgeStyle;rounded=0;orthogonalLoop=1;jettySize=auto;html=1;exitX=0.5;exitY=1;exitDx=0;exitDy=0;entryX=0.5;entryY=0;entryDx=0;entryDy=0;" edge="1" parent="1" source="Hx5SDxIe2vybmNxk9Qnh-132" target="Hx5SDxIe2vybmNxk9Qnh-153">
          <mxGeometry relative="1" as="geometry" />
        </mxCell>
        <mxCell id="Hx5SDxIe2vybmNxk9Qnh-204" style="edgeStyle=orthogonalEdgeStyle;rounded=0;orthogonalLoop=1;jettySize=auto;html=1;exitX=0.5;exitY=1;exitDx=0;exitDy=0;entryX=0.5;entryY=0;entryDx=0;entryDy=0;" edge="1" parent="1" source="Hx5SDxIe2vybmNxk9Qnh-132" target="Hx5SDxIe2vybmNxk9Qnh-154">
          <mxGeometry relative="1" as="geometry" />
        </mxCell>
        <mxCell id="Hx5SDxIe2vybmNxk9Qnh-205" style="edgeStyle=orthogonalEdgeStyle;rounded=0;orthogonalLoop=1;jettySize=auto;html=1;exitX=0.5;exitY=1;exitDx=0;exitDy=0;entryX=0.5;entryY=0;entryDx=0;entryDy=0;" edge="1" parent="1" source="Hx5SDxIe2vybmNxk9Qnh-132" target="Hx5SDxIe2vybmNxk9Qnh-155">
          <mxGeometry relative="1" as="geometry" />
        </mxCell>
        <mxCell id="Hx5SDxIe2vybmNxk9Qnh-132" value="form" style="ellipse;whiteSpace=wrap;html=1;aspect=fixed;fillColor=#f8cecc;strokeColor=#b85450;" vertex="1" parent="1">
          <mxGeometry x="3490" y="490" width="80" height="80" as="geometry" />
        </mxCell>
        <mxCell id="Hx5SDxIe2vybmNxk9Qnh-142" value="label" style="ellipse;whiteSpace=wrap;html=1;aspect=fixed;fillColor=#e1d5e7;strokeColor=#9673a6;" vertex="1" parent="1">
          <mxGeometry x="2860" y="610" width="80" height="80" as="geometry" />
        </mxCell>
        <mxCell id="Hx5SDxIe2vybmNxk9Qnh-144" value="input" style="ellipse;whiteSpace=wrap;html=1;aspect=fixed;fillColor=#e1d5e7;strokeColor=#9673a6;" vertex="1" parent="1">
          <mxGeometry x="3012.5" y="610" width="80" height="80" as="geometry" />
        </mxCell>
        <mxCell id="Hx5SDxIe2vybmNxk9Qnh-153" value="br" style="ellipse;whiteSpace=wrap;html=1;aspect=fixed;fillColor=#e1d5e7;strokeColor=#9673a6;" vertex="1" parent="1">
          <mxGeometry x="3180" y="610" width="50" height="50" as="geometry" />
        </mxCell>
        <mxCell id="Hx5SDxIe2vybmNxk9Qnh-154" value="br" style="ellipse;whiteSpace=wrap;html=1;aspect=fixed;fillColor=#e1d5e7;strokeColor=#9673a6;" vertex="1" parent="1">
          <mxGeometry x="3110" y="610" width="50" height="50" as="geometry" />
        </mxCell>
        <mxCell id="Hx5SDxIe2vybmNxk9Qnh-155" value="br" style="ellipse;whiteSpace=wrap;html=1;aspect=fixed;fillColor=#e1d5e7;strokeColor=#9673a6;" vertex="1" parent="1">
          <mxGeometry x="2950" y="610" width="50" height="50" as="geometry" />
        </mxCell>
        <mxCell id="Hx5SDxIe2vybmNxk9Qnh-159" value="label" style="ellipse;whiteSpace=wrap;html=1;aspect=fixed;fillColor=#e1d5e7;strokeColor=#9673a6;" vertex="1" parent="1">
          <mxGeometry x="3240" y="610" width="80" height="80" as="geometry" />
        </mxCell>
        <mxCell id="Hx5SDxIe2vybmNxk9Qnh-160" value="input" style="ellipse;whiteSpace=wrap;html=1;aspect=fixed;fillColor=#e1d5e7;strokeColor=#9673a6;" vertex="1" parent="1">
          <mxGeometry x="3392.5" y="610" width="80" height="80" as="geometry" />
        </mxCell>
        <mxCell id="Hx5SDxIe2vybmNxk9Qnh-161" value="br" style="ellipse;whiteSpace=wrap;html=1;aspect=fixed;fillColor=#e1d5e7;strokeColor=#9673a6;" vertex="1" parent="1">
          <mxGeometry x="3550" y="610" width="50" height="50" as="geometry" />
        </mxCell>
        <mxCell id="Hx5SDxIe2vybmNxk9Qnh-162" value="br" style="ellipse;whiteSpace=wrap;html=1;aspect=fixed;fillColor=#e1d5e7;strokeColor=#9673a6;" vertex="1" parent="1">
          <mxGeometry x="3490" y="610" width="50" height="50" as="geometry" />
        </mxCell>
        <mxCell id="Hx5SDxIe2vybmNxk9Qnh-163" value="br" style="ellipse;whiteSpace=wrap;html=1;aspect=fixed;fillColor=#e1d5e7;strokeColor=#9673a6;" vertex="1" parent="1">
          <mxGeometry x="3330" y="610" width="50" height="50" as="geometry" />
        </mxCell>
        <mxCell id="Hx5SDxIe2vybmNxk9Qnh-169" value="input" style="ellipse;whiteSpace=wrap;html=1;aspect=fixed;fillColor=#e1d5e7;strokeColor=#9673a6;" vertex="1" parent="1">
          <mxGeometry x="4000" y="610" width="80" height="80" as="geometry" />
        </mxCell>
        <mxCell id="Hx5SDxIe2vybmNxk9Qnh-189" value="label" style="ellipse;whiteSpace=wrap;html=1;aspect=fixed;fillColor=#e1d5e7;strokeColor=#9673a6;" vertex="1" parent="1">
          <mxGeometry x="3620" y="610" width="80" height="80" as="geometry" />
        </mxCell>
        <mxCell id="Hx5SDxIe2vybmNxk9Qnh-190" value="input" style="ellipse;whiteSpace=wrap;html=1;aspect=fixed;fillColor=#e1d5e7;strokeColor=#9673a6;" vertex="1" parent="1">
          <mxGeometry x="3772.5" y="610" width="80" height="80" as="geometry" />
        </mxCell>
        <mxCell id="Hx5SDxIe2vybmNxk9Qnh-191" value="br" style="ellipse;whiteSpace=wrap;html=1;aspect=fixed;fillColor=#e1d5e7;strokeColor=#9673a6;" vertex="1" parent="1">
          <mxGeometry x="3930" y="610" width="50" height="50" as="geometry" />
        </mxCell>
        <mxCell id="Hx5SDxIe2vybmNxk9Qnh-192" value="br" style="ellipse;whiteSpace=wrap;html=1;aspect=fixed;fillColor=#e1d5e7;strokeColor=#9673a6;" vertex="1" parent="1">
          <mxGeometry x="3870" y="610" width="50" height="50" as="geometry" />
        </mxCell>
        <mxCell id="Hx5SDxIe2vybmNxk9Qnh-193" value="br" style="ellipse;whiteSpace=wrap;html=1;aspect=fixed;fillColor=#e1d5e7;strokeColor=#9673a6;" vertex="1" parent="1">
          <mxGeometry x="3710" y="610" width="50" height="50" as="geometry" />
        </mxCell>
        <mxCell id="Hx5SDxIe2vybmNxk9Qnh-206" value="p" style="ellipse;whiteSpace=wrap;html=1;aspect=fixed;fillColor=#fff2cc;strokeColor=#d6b656;" vertex="1" parent="1">
          <mxGeometry x="4170" y="360" width="80" height="80" as="geometry" />
        </mxCell>
      </root>
    </mxGraphModel>
  </diagram>
</mxfile>
